<svg height="512pt" viewBox="0 0 512 512.00114" width="512pt" xmlns="http://www.w3.org/2000/svg"><path d="m448.332031 381.164062c-18.417969 0-33.40625-14.988281-33.40625-33.410156v-4.097656c0-18.421875 14.988281-33.410156 33.40625-33.410156h45.835938v-30.046875h-45.835938c-34.988281 0-63.453125 28.464843-63.453125 63.457031v4.097656c0 34.992188 28.464844 63.457032 63.453125 63.457032 18.421875 0 33.410157 14.984374 33.410157 33.40625v3.929687c0 18.421875-14.988282 33.40625-33.410157 33.40625h-77.875v-44.386719c0-66.226562-24.824219-129.421875-69.902343-177.9375l-84.628907-91.09375v-28.085937c0-24.21875-8.976562-47.699219-25.28125-66.113281-13.894531-15.695313-31.78125-26.175782-51.242187-30.226563-.246094-.863281-.5-1.710937-.75-2.550781-11.351563-37.824219-43.921875-45.246094-68.371094-40.109375l-.109375.023437c.523437-.109375 1.050781-.183594 1.578125-.234375-1.660156.1875-3.105469.613281-4.230469 1.015625l-.003906-.015625-.609375.242188c-.300781.117187-.570312.226562-.804688.320312l-11.433593 4.546875 1.722656 5.71875 3.597656 46.398438-12.058593 12.980468c-5.84375 4.425782-14.992188 14.375-29.582032 43.773438-8.21875 16.5625-14.335937 31.566406-14.59375 32.195312l-3.753906 9.234376 29.074219 29.078124c.789062.789063 1.546875 1.550782 2.277343 2.289063 10.253907 10.34375 19.105469 19.273437 39.773438 19.273437h2.128906v27.320313c0 13.851563 2.21875 27.53125 6.597656 40.667969l23.449219 70.34375v135.289062h-50.175781l-.003906 30.046875 395.210937.042969c34.988281 0 63.453125-28.464844 63.453125-63.453125v-3.929687c.003906-34.988282-28.460937-63.453126-63.453125-63.453126zm-107.921875 100.785157-150.617187-.019531v-48.550782c0-40.269531 32.761719-73.035156 73.03125-73.035156h21.96875v-30.046875h-21.96875c-56.835938 0-103.078125 46.242187-103.078125 103.082031v48.546875l-26.394532-.003906v-140.175781l-24.992187-74.972656c-3.355469-10.066407-5.058594-20.550782-5.058594-31.164063v-57.367187h-32.175781c-8.140625 0-9.710938-1.582032-18.429688-10.378907-.761718-.765625-1.550781-1.5625-2.371093-2.382812l-14.886719-14.886719c11.410156-26.246094 25.011719-50.472656 30.777344-54.296875l1.488281-.988281 23.257813-25.039063-3.101563-40.035156c1.527344.15625 3.003906.410156 4.390625.765625 8.773438 2.257812 14.371094 8.355469 17.625 19.195312.917969 3.058594 1.761719 6.011719 1.953125 8.46875l1.019531 12.816407 12.824219.972656c33.199219 2.507813 60.210937 33.011719 60.210937 67.992187v39.894532l92.660157 99.738281c39.894531 42.941406 61.867187 98.871094 61.867187 157.488281zm0 0"/></svg>